<svg width="26" height="26" viewBox="0 0 26 26" fill="none" xmlns="http://www.w3.org/2000/svg">
<path d="M13 0C5.81951 0 0 5.81951 0 13C0 20.1805 5.81951 26 13 26C20.1805 26 26 20.1805 26 13C26 5.81951 20.1805 0 13 0ZM19.0932 15.5992H15.5992V19.0932C15.5992 20.5278 14.4365 21.6925 13 21.6925C11.5635 21.6925 10.4008 20.5297 10.4008 19.0932V15.5992H6.90678C5.47219 15.5992 4.30754 14.4365 4.30754 13C4.30754 11.5635 5.47031 10.4008 6.90678 10.4008H10.4008V6.90678C10.4008 5.47219 11.5635 4.30754 13 4.30754C14.4365 4.30754 15.5992 5.47031 15.5992 6.90678V10.4008H19.0932C20.5278 10.4008 21.6925 11.5635 21.6925 13C21.6925 14.4365 20.5297 15.5992 19.0932 15.5992Z" fill="white"/>
</svg>
