<svg width="27" height="27" viewBox="0 0 27 27" fill="none" xmlns="http://www.w3.org/2000/svg">
<path fill-rule="evenodd" clip-rule="evenodd" d="M13.5 27C20.9558 27 27 20.9558 27 13.5C27 6.04416 20.9558 0 13.5 0C6.04416 0 0 6.04416 0 13.5C0 20.9558 6.04416 27 13.5 27ZM9.57175 15.3138C9.54638 15.5129 9.52101 15.7121 9.4957 15.9111L9.49517 15.9106H9.4497C9.42659 15.7238 9.40356 15.5369 9.38054 15.3501C9.32296 14.8829 9.26539 14.4156 9.20646 13.9484C9.03884 12.6219 8.86963 11.2949 8.70043 9.96847C8.66632 9.70026 8.6324 9.43206 8.59848 9.16388C8.48881 8.29686 8.37916 7.43006 8.26366 6.56424C8.21237 6.18191 8.00245 6.0102 7.62966 6.0102C7.38058 6.00986 7.13139 6.01183 6.8822 6.0138C6.32149 6.01824 5.76075 6.02268 5.20102 6.00075C4.7505 5.98353 4.438 6.25638 4.51044 6.81986C4.65058 7.91314 4.78365 9.00766 4.91674 10.1023C4.983 10.6473 5.04927 11.1923 5.11641 11.7373C5.21176 12.507 5.30836 13.2764 5.40496 14.0458C5.47496 14.6034 5.54497 15.1611 5.61452 15.7189C5.66924 16.1582 5.72376 16.5975 5.77828 17.0369C5.9192 18.1726 6.06012 19.3083 6.20462 20.4435C6.24957 20.7985 6.45632 20.9947 6.78997 20.9958C8.38316 21.0014 9.97582 21.0014 11.5685 20.9958C11.9048 20.9947 12.1004 20.7969 12.1464 20.4401C12.1885 20.112 12.2266 19.7833 12.2646 19.4544C12.2796 19.3249 12.2946 19.1954 12.3098 19.0659L12.3717 18.5392C12.5589 16.9464 12.7461 15.3533 12.9338 13.7606C12.9607 13.5297 12.9886 13.2987 13.0165 13.0678C13.0258 12.9909 13.035 12.9139 13.0443 12.837C13.2399 14.1215 13.3931 15.4013 13.5463 16.6807C13.5608 16.8023 13.5754 16.9238 13.59 17.0453C13.7238 18.1628 13.8575 19.2804 14.0035 20.3962C14.0632 20.8508 14.2372 20.9975 14.6729 20.998C16.2391 21.0003 17.8059 21.0003 19.3721 20.998C19.8025 20.9975 19.9992 20.813 20.0542 20.3651C20.0883 20.0881 20.121 19.8108 20.1536 19.5335C20.1954 19.1784 20.2373 18.8233 20.2821 18.4685C20.4018 17.5238 20.5226 16.5792 20.6435 15.6346C20.7661 14.6761 20.8888 13.7175 21.0102 12.7586C21.1863 11.3672 21.3592 9.97569 21.53 8.58366C21.5424 8.48304 21.5549 8.38244 21.5674 8.28185C21.6335 7.75016 21.6995 7.21856 21.7458 6.68538C21.7844 6.2436 21.558 6.01076 21.1403 6.0102C20.8885 6.00985 20.6367 6.01192 20.3849 6.01398C19.8357 6.01849 19.2867 6.023 18.7381 6.00242C18.1665 5.9813 18.0232 6.25638 17.9703 6.71483C17.8759 7.53285 17.7721 8.34946 17.6683 9.16635C17.6418 9.37442 17.6154 9.58251 17.5891 9.79064C17.4524 10.8711 17.3147 11.9513 17.1771 13.0316C17.1061 13.5892 17.035 14.1469 16.9641 14.7047C16.9202 15.0503 16.8768 15.3961 16.8334 15.7418C16.8103 15.9254 16.7873 16.1089 16.7642 16.2924C16.6343 15.4712 16.5329 14.6523 16.4314 13.8337C16.4206 13.746 16.4097 13.6582 16.3988 13.5705C16.3163 12.9068 16.233 12.2432 16.1498 11.5795C16.0079 10.449 15.8661 9.31844 15.7278 8.18744C15.5866 7.03047 14.6248 6.38363 13.8612 6.44198C13.5249 6.4679 13.1863 6.46181 12.8475 6.45571C12.6488 6.45213 12.45 6.44855 12.2517 6.45143C11.5257 6.46199 10.9667 6.8043 10.6759 7.49782C10.5236 7.86125 10.4688 8.27748 10.416 8.67857C10.4138 8.69512 10.4116 8.71164 10.4094 8.72814C10.2374 10.0241 10.0748 11.3212 9.91221 12.6185C9.85337 13.0879 9.79453 13.5574 9.73523 14.0268C9.68106 14.4556 9.6264 14.8847 9.57175 15.3138Z" fill="white"/>
</svg>
