<svg width="32" height="32" viewBox="0 0 32 32" fill="none" xmlns="http://www.w3.org/2000/svg">
<g filter="url(#filter0_i_84_25)">
<circle cx="16" cy="16" r="16" fill="#FAF4D3"/>
</g>
<path d="M16.5257 8.00169C18.9751 8.00169 21.4245 7.99789 23.8777 8.00169C24.9198 8.00169 25.6805 8.57526 25.943 9.51349C25.9962 9.69961 26 9.88574 26 10.0757C26 13.5209 26 16.9623 26 20.4076C26 21.6497 25.1518 22.4891 23.8967 22.4929C20.9529 22.5005 18.0128 22.5005 15.069 22.4929C14.7685 22.4929 14.5479 22.5765 14.3425 22.8006C13.0988 24.1415 11.8437 25.4747 10.5923 26.808C10.5201 26.8878 10.4592 27.0397 10.3375 26.9903C10.2158 26.941 10.2728 26.789 10.2728 26.6827C10.2728 25.4481 10.2538 24.2098 10.2805 22.9753C10.2881 22.5803 10.1549 22.4587 9.7822 22.4967C9.49314 22.5233 9.20028 22.5081 8.91122 22.4967C7.85387 22.4397 7.00951 21.5927 7.00571 20.5443C6.9981 17.0155 6.9981 13.4829 7.00571 9.95031C7.00951 8.84115 7.91472 8.00929 9.09759 8.00549C11.5736 7.99789 14.0496 8.00549 16.5257 8.00549V8.00169ZM16.5067 14.0109C15.7916 14.0109 15.2287 14.5693 15.2363 15.2758C15.2439 15.9519 15.7802 16.4837 16.4724 16.4913C17.2027 16.5027 17.7694 15.9557 17.7618 15.253C17.7542 14.5579 17.2027 14.0147 16.5067 14.0109ZM13.9127 15.253C13.9089 14.5275 13.3917 14.0109 12.669 14.0109C11.9502 14.0109 11.4329 14.5313 11.4291 15.253C11.4291 15.9671 11.9502 16.4913 12.6728 16.4913C13.3917 16.4913 13.9165 15.9671 13.9127 15.253ZM20.3291 16.4913C21.0479 16.4913 21.5728 15.9671 21.5652 15.2492C21.5614 14.5275 21.0403 14.0109 20.3215 14.0109C19.6026 14.0109 19.0854 14.5313 19.0854 15.2568C19.0854 15.9709 19.6102 16.4951 20.3291 16.4913Z" fill="#F5A00E"/>
<defs>
<filter id="filter0_i_84_25" x="0" y="0" width="32" height="33" filterUnits="userSpaceOnUse" color-interpolation-filters="sRGB">
<feFlood flood-opacity="0" result="BackgroundImageFix"/>
<feBlend mode="normal" in="SourceGraphic" in2="BackgroundImageFix" result="shape"/>
<feColorMatrix in="SourceAlpha" type="matrix" values="0 0 0 0 0 0 0 0 0 0 0 0 0 0 0 0 0 0 127 0" result="hardAlpha"/>
<feOffset dy="1"/>
<feGaussianBlur stdDeviation="0.5"/>
<feComposite in2="hardAlpha" operator="arithmetic" k2="-1" k3="1"/>
<feColorMatrix type="matrix" values="0 0 0 0 0.988235 0 0 0 0 0.792157 0 0 0 0 0.298039 0 0 0 1 0"/>
<feBlend mode="normal" in2="shape" result="effect1_innerShadow_84_25"/>
</filter>
</defs>
</svg>
