<svg width="244" height="231" viewBox="0 0 244 231" fill="none" xmlns="http://www.w3.org/2000/svg">
<g opacity="0.5">
<path d="M202.038 21.4595C178.86 21.4595 160.075 40.2442 160.075 63.422C160.075 86.5997 178.86 105.384 202.038 105.384C225.215 105.384 244 86.5997 244 63.422C244 40.2442 225.215 21.4595 202.038 21.4595ZM221.706 71.812H210.428V83.0902C210.428 87.7208 206.674 91.4802 202.038 91.4802C197.401 91.4802 193.647 87.7269 193.647 83.0902V71.812H182.369C177.739 71.812 173.979 68.0587 173.979 63.422C173.979 58.7852 177.733 55.0319 182.369 55.0319H193.647V43.7538C193.647 39.1231 197.401 35.3637 202.038 35.3637C206.674 35.3637 210.428 39.117 210.428 43.7538V55.0319H221.706C226.336 55.0319 230.096 58.7852 230.096 63.422C230.096 68.0587 226.342 71.812 221.706 71.812Z" fill="#FCCA4C"/>
<path d="M219.269 165.717C226.653 150.509 230.796 133.437 230.796 115.395C230.796 111.648 230.614 107.943 230.26 104.288C222.09 110.076 212.121 113.488 201.349 113.488C173.699 113.488 151.283 91.072 151.283 63.422C151.283 43.9731 162.384 27.1199 178.586 18.8334C160.429 6.92773 138.725 0 115.395 0C51.6625 0 0 51.6625 0 115.395C0 179.128 51.6625 230.79 115.395 230.79C133.948 230.79 151.478 226.403 167.009 218.623C184.051 219.975 209.154 220.81 216.831 215.003C228.816 205.931 223.308 188.115 220.073 173.541C219.421 170.592 219.202 167.996 219.262 165.723L219.269 165.717ZM33.9684 94.0758C33.9684 86.6972 39.9457 80.72 47.3243 80.72C54.7029 80.72 60.6801 86.6972 60.6801 94.0758C60.6801 101.454 54.7029 107.432 47.3243 107.432C39.9457 107.432 33.9684 101.454 33.9684 94.0758ZM85.8685 167.825C67.7845 167.825 53.1248 153.166 53.1248 135.082H118.612C118.612 153.166 103.953 167.825 85.8685 167.825ZM118.612 107.438C111.234 107.438 105.256 101.461 105.256 94.0819C105.256 86.7033 111.234 80.7261 118.612 80.7261C125.991 80.7261 131.968 86.7033 131.968 94.0819C131.968 101.461 125.991 107.438 118.612 107.438Z" fill="#FCCA4C"/>
</g>
</svg>
