<svg width="26" height="25" viewBox="0 0 26 25" fill="none" xmlns="http://www.w3.org/2000/svg">
<path d="M13.0916 0.00150211C16.3008 0.0392897 19.1249 1.10574 21.5391 3.23864C23.0453 4.5696 24.1666 6.17768 24.9114 8.04606C25.1457 8.62547 25.2377 9.23847 25.2795 9.85987C25.3005 10.1454 25.3298 10.4309 25.2628 10.7206C25.1289 11.3042 24.8026 11.745 24.3089 12.0683C23.7566 12.4294 23.1374 12.6268 22.5181 12.8241C21.4721 13.1558 20.4136 13.4455 19.4011 13.8738C17.4681 14.6841 16.0497 16.0276 15.1543 17.9338C14.9075 18.4586 14.9033 18.467 14.3427 18.593C11.9745 19.1262 9.88254 18.5762 8.06252 16.9723C7.5437 16.5147 7.12531 15.9689 6.76967 15.3727C6.52282 14.9612 6.03747 14.8184 5.65255 15.0452C5.2467 15.2803 5.117 15.7799 5.37641 16.1998C6.77804 18.509 8.81145 19.8904 11.4725 20.327C12.2883 20.4614 13.1042 20.453 13.9201 20.327C14.1418 20.2934 14.1502 20.306 14.0707 20.5118C13.736 21.3767 13.4013 22.2458 12.9536 23.0645C12.7109 23.5054 12.4348 23.9253 12.0666 24.2737C11.5561 24.7524 10.9746 25.0379 10.2507 24.9959C9.44741 24.9497 8.66082 24.8364 7.91608 24.5173C7.05418 24.152 6.25086 23.6733 5.50193 23.1107C3.03338 21.2549 1.41837 18.8239 0.673626 15.8219C0.401668 14.7345 0.276149 13.6218 0.309621 12.5008C0.401668 9.57856 1.34725 6.96282 3.20074 4.69976C5.21742 2.23517 7.81566 0.74046 10.9453 0.182043C11.6524 0.0560842 12.3678 -0.0110938 13.0916 0.00150211ZM10.2842 8.78922C10.2842 7.86972 9.56874 7.14756 8.65664 7.14756C7.74453 7.14756 6.99979 7.88652 7.00397 8.79342C7.00397 9.70032 7.74035 10.4351 8.64409 10.4351C9.56874 10.4351 10.2842 9.71711 10.2842 8.78922ZM15.3343 8.79342C15.3343 9.71292 16.0539 10.4309 16.966 10.4351C17.8739 10.4351 18.6145 9.70032 18.6187 8.80181C18.6187 7.88232 17.8823 7.14336 16.9576 7.14336C16.0497 7.14336 15.3343 7.87392 15.3343 8.79342Z" fill="white"/>
<path d="M13.9422 23.9501C13.8849 23.9621 13.8585 23.9621 13.8496 23.942C13.8364 23.9099 13.8629 23.8858 13.8805 23.8577C14.0172 23.6487 14.1626 23.4397 14.2949 23.2227C14.8107 22.3668 15.181 21.4586 15.569 20.5504C15.9525 19.6543 16.3449 18.7622 16.843 17.9143C17.6101 16.6163 18.7784 15.7483 20.242 15.1776C21.2472 14.7878 22.3008 14.5307 23.3368 14.2333C23.954 14.0565 24.5624 13.8596 25.1355 13.5903C25.1796 13.5702 25.2369 13.514 25.2854 13.5582C25.3295 13.5984 25.2854 13.6546 25.2678 13.6988C24.8225 14.9325 24.1744 16.0738 23.3677 17.1387C21.7894 19.2122 19.8805 20.9804 17.5572 22.3668C16.4595 23.0218 15.2868 23.5482 14.0348 23.9179C13.9907 23.93 13.951 23.942 13.9378 23.9461L13.9422 23.9501Z" fill="white"/>
</svg>
