<svg width="23" height="23" viewBox="0 0 23 23" fill="none" xmlns="http://www.w3.org/2000/svg">
<path d="M11.4558 22.9953C9.3501 22.9953 7.24826 22.9683 5.14256 23.003C2.72061 23.0454 0.364234 21.2334 0.020997 18.4998C-0.00214255 18.3148 0.00171404 18.122 0.00171404 17.9369C0.00171404 13.6805 -0.00214255 9.42407 0.00171404 5.16763C0.00557064 2.35315 2.26168 0.0976997 5.07314 0.0899888C9.33082 0.0861333 13.5885 0.0861333 17.8462 0.0899888C20.6576 0.0899888 22.9099 2.34929 22.9138 5.16378C22.9176 9.42021 22.9176 13.6766 22.9138 17.9331C22.9138 20.7283 20.6538 22.9799 17.8578 22.9914C17.8269 22.9914 17.7999 22.9914 17.7691 22.9914C15.6634 22.9914 13.5615 22.9914 11.4558 22.9914V22.9953ZM20.3144 12.1961C20.3144 12.0072 20.3144 11.9186 20.3144 11.8299C20.3144 9.64768 20.3144 7.46549 20.3144 5.2833C20.3144 3.75268 19.2423 2.68472 17.7112 2.68472C13.5461 2.68472 9.3771 2.68472 5.21198 2.68472C3.67705 2.68472 2.60492 3.75268 2.60106 5.27944C2.60106 7.46164 2.60106 9.64383 2.60106 11.826C2.60106 11.9186 2.56635 12.0226 2.65505 12.1345C2.73604 12.0573 2.81317 11.9841 2.8903 11.9108C3.72719 11.0781 4.55635 10.2376 5.39709 9.40864C6.15684 8.66454 7.04 8.17104 8.13142 8.12863C9.30382 8.08237 10.2757 8.54502 11.0971 9.34696C11.9494 10.1797 12.7825 11.0279 13.6271 11.8684C13.8687 12.11 14.113 12.1139 14.3598 11.88C15.833 10.4843 17.6842 10.2723 19.2847 11.3132C19.6395 11.5446 19.9557 11.8299 20.3183 12.1961H20.3144ZM11.425 20.3967C13.5576 20.3967 15.6903 20.4006 17.823 20.3967C19.0224 20.3967 20.0444 19.5639 20.2527 18.3919C20.3954 17.6092 20.2874 16.8073 20.3067 16.0169C20.3067 15.9321 20.272 15.8627 20.2141 15.8049C19.4698 15.0646 18.7409 14.3051 17.9696 13.5918C17.4798 13.1369 16.8975 13.1677 16.373 13.588C16.265 13.6728 16.1724 13.7846 16.0644 13.8694C15.8678 14.0236 15.887 14.1509 16.0644 14.3205C16.5427 14.7793 17.0132 15.2497 17.476 15.7278C17.9812 16.2521 17.9619 17.0502 17.4567 17.5514C16.9476 18.0564 16.1647 18.0564 15.6325 17.5552C15.5168 17.4473 15.405 17.3316 15.2931 17.2198C13.3147 15.242 11.3401 13.2603 9.35782 11.2863C8.60964 10.5422 7.96558 10.5422 7.22126 11.2785C5.7519 12.7436 4.29025 14.2126 2.81703 15.6738C2.65505 15.8318 2.58563 15.9976 2.59335 16.2251C2.60492 16.7494 2.59335 17.2776 2.5972 17.802C2.5972 19.3288 3.67319 20.4006 5.20426 20.4006C7.27911 20.4006 9.3501 20.4006 11.425 20.4006V20.3967Z" fill="white"/>
<path d="M15.0998 8.42044C14.2339 8.42044 13.5238 7.71465 13.5421 6.86027C13.5604 5.99661 14.266 5.29082 15.109 5.29546C15.952 5.29546 16.6713 6.02911 16.6667 6.86956C16.6621 7.73787 15.9703 8.42044 15.0998 8.42044Z" fill="white"/>
</svg>
