<svg width="15" height="17" viewBox="0 0 15 17" fill="none" xmlns="http://www.w3.org/2000/svg">
<path d="M0.523276 16.9952C0.153568 16.9857 -0.0288851 16.7192 0.0239303 16.2956C0.0575401 16.0053 0.15837 15.734 0.264 15.4723C0.960204 13.7304 1.618 11.9695 2.38142 10.2705C2.54947 9.89925 2.75113 9.66605 3.10163 9.6137C4.48924 9.4043 5.87684 9.17585 7.26445 8.95217C7.85502 8.85699 8.45039 8.75704 9.04097 8.6571C9.12739 8.64282 9.26183 8.65234 9.26183 8.51432C9.26183 8.37155 9.13219 8.38583 9.04577 8.37155C8.1239 8.21925 7.19723 8.06696 6.27056 7.91942C5.19504 7.74333 4.11473 7.61483 3.04401 7.39591C2.76073 7.3388 2.56867 7.16747 2.42943 6.85336C1.60839 5.03058 0.897786 3.14593 0.163171 1.27556C0.0287317 0.937657 -0.110509 0.537883 0.134363 0.199979C0.374433 -0.133166 0.696127 0.0191292 0.960204 0.161906C1.93009 0.675901 2.89517 1.21845 3.86025 1.75148C6.58745 3.26491 9.30984 4.77834 12.037 6.29177C12.8053 6.7201 13.5783 7.13415 14.3465 7.572C14.6682 7.75285 14.9851 7.98129 14.9995 8.48577C15.0139 8.98073 14.7114 9.22345 14.3993 9.4043C13.3382 10.0087 12.2723 10.5989 11.2064 11.189C8.99295 12.4216 6.7795 13.659 4.56126 14.8917C3.41372 15.5294 2.26138 16.1671 1.10905 16.8001C0.91219 16.9096 0.710531 16.9905 0.523276 17V16.9952Z" fill="white"/>
</svg>
