<svg width="32" height="32" viewBox="0 0 32 32" fill="none" xmlns="http://www.w3.org/2000/svg">
<g filter="url(#filter0_i_84_24)">
<circle cx="16" cy="16" r="16" fill="#FAF4D3"/>
</g>
<path fill-rule="evenodd" clip-rule="evenodd" d="M16.5 27C22.299 27 27 22.299 27 16.5C27 10.701 22.299 6 16.5 6C10.701 6 6 10.701 6 16.5C6 22.299 10.701 27 16.5 27ZM13.4447 17.9108C13.425 18.0657 13.4052 18.2205 13.3856 18.3753L13.3852 18.3749H13.3498C13.3318 18.2295 13.3139 18.0842 13.296 17.9388C13.2512 17.5754 13.2064 17.2121 13.1606 16.8488C13.0302 15.8171 12.8986 14.785 12.767 13.7533C12.7405 13.5447 12.7141 13.336 12.6877 13.1275C12.6024 12.4531 12.5171 11.7789 12.4273 11.1055C12.3874 10.8082 12.2241 10.6746 11.9342 10.6746C11.7405 10.6743 11.5467 10.6759 11.3528 10.6774C10.9167 10.6809 10.4806 10.6843 10.0453 10.6673C9.69485 10.6539 9.4518 10.8661 9.50814 11.3043C9.61714 12.1547 9.72064 13.006 9.82415 13.8573C9.87569 14.2812 9.92723 14.7052 9.97945 15.129C10.0536 15.7277 10.1287 16.3261 10.2039 16.9245C10.2583 17.3582 10.3128 17.7919 10.3669 18.2258C10.4094 18.5675 10.4518 18.9092 10.4942 19.2509C10.6038 20.1342 10.7134 21.0176 10.8258 21.9005C10.8608 22.1767 11.0216 22.3292 11.2811 22.3301C12.5203 22.3344 13.759 22.3344 14.9977 22.3301C15.2593 22.3292 15.4115 22.1754 15.4472 21.8979C15.48 21.6426 15.5096 21.387 15.5392 21.1312C15.5508 21.0305 15.5625 20.9297 15.5743 20.829L15.6216 20.4266C15.7675 19.1854 15.9134 17.9438 16.0596 16.7027C16.0806 16.5231 16.1023 16.3435 16.1239 16.1639C16.1312 16.104 16.1384 16.0442 16.1456 15.9843C16.2977 16.9834 16.4169 17.9788 16.536 18.9739C16.5473 19.0684 16.5587 19.163 16.57 19.2575C16.6741 20.1267 16.7781 20.9958 16.8916 21.8637C16.9381 22.2173 17.0734 22.3314 17.4123 22.3318C18.6304 22.3335 19.849 22.3335 21.0672 22.3318C21.402 22.3314 21.555 22.1879 21.5977 21.8395C21.6242 21.6241 21.6496 21.4084 21.6751 21.1928C21.7076 20.9166 21.7401 20.6403 21.775 20.3644C21.8681 19.6298 21.962 18.8953 22.056 18.1608C22.1514 17.4151 22.2468 16.6694 22.3413 15.9234C22.4783 14.8411 22.6127 13.7589 22.7456 12.6762C22.7552 12.5979 22.7649 12.5197 22.7746 12.4415C22.826 12.0279 22.8774 11.6144 22.9134 11.1997C22.9434 10.8561 22.7674 10.675 22.4425 10.6746C22.2466 10.6743 22.0508 10.6759 21.855 10.6776C21.4278 10.6811 21.0008 10.6846 20.5741 10.6686C20.1295 10.6521 20.0181 10.8661 19.9769 11.2227C19.9035 11.8589 19.8228 12.494 19.742 13.1293C19.7215 13.2911 19.7009 13.453 19.6804 13.615C19.5741 14.4552 19.4671 15.2952 19.36 16.1353C19.3048 16.5691 19.2495 17.0031 19.1943 17.437C19.1602 17.7058 19.1264 17.9747 19.0927 18.2436C19.0747 18.3864 19.0568 18.5291 19.0388 18.6718C18.9378 18.0331 18.8589 17.3962 18.78 16.7595C18.7716 16.6913 18.7631 16.6231 18.7547 16.5549C18.6905 16.0387 18.6257 15.5226 18.561 15.0065C18.4506 14.1271 18.3403 13.2477 18.2328 12.368C18.1229 11.4682 17.3749 10.9651 16.781 11.0104C16.5194 11.0306 16.256 11.0259 15.9925 11.0211C15.838 11.0183 15.6834 11.0155 15.5291 11.0178C14.9644 11.026 14.5297 11.2922 14.3035 11.8316C14.185 12.1143 14.1424 12.438 14.1013 12.75C14.0996 12.7629 14.0979 12.7757 14.0962 12.7886C13.9624 13.7966 13.836 14.8055 13.7095 15.8145C13.6637 16.1796 13.618 16.5446 13.5719 16.9097C13.5297 17.2433 13.4872 17.5771 13.4447 17.9108Z" fill="#F5A00E"/>
<defs>
<filter id="filter0_i_84_24" x="0" y="0" width="32" height="33" filterUnits="userSpaceOnUse" color-interpolation-filters="sRGB">
<feFlood flood-opacity="0" result="BackgroundImageFix"/>
<feBlend mode="normal" in="SourceGraphic" in2="BackgroundImageFix" result="shape"/>
<feColorMatrix in="SourceAlpha" type="matrix" values="0 0 0 0 0 0 0 0 0 0 0 0 0 0 0 0 0 0 127 0" result="hardAlpha"/>
<feOffset dy="1"/>
<feGaussianBlur stdDeviation="0.5"/>
<feComposite in2="hardAlpha" operator="arithmetic" k2="-1" k3="1"/>
<feColorMatrix type="matrix" values="0 0 0 0 0.988235 0 0 0 0 0.792157 0 0 0 0 0.298039 0 0 0 1 0"/>
<feBlend mode="normal" in2="shape" result="effect1_innerShadow_84_24"/>
</filter>
</defs>
</svg>
